<mxfile host="app.diagrams.net" modified="2024-08-07T05:59:27.350Z" agent="Mozilla/5.0 (Windows NT 10.0; Win64; x64) AppleWebKit/537.36 (KHTML, like Gecko) Chrome/127.0.0.0 Safari/537.36" version="24.7.2" etag="WQo6XKlyT1uOzGp32jsO" type="github">
  <diagram name="페이지-1" id="hd5_LlKMTGAByC5cCQcA">
    <mxGraphModel>
      <root>
        <mxCell id="0" />
        <mxCell id="1" parent="0" />
      </root>
    </mxGraphModel>
  </diagram>
</mxfile>
